<?xml version="1.0" encoding="utf-8"?>
<!-- Generator: Adobe Illustrator 19.0.0, SVG Export Plug-In . SVG Version: 6.00 Build 0)  -->
<!DOCTYPE svg PUBLIC "-//W3C//DTD SVG 1.1//EN" "http://www.w3.org/Graphics/SVG/1.1/DTD/svg11.dtd">
<svg version="1.1" xmlns="http://www.w3.org/2000/svg" xmlns:xlink="http://www.w3.org/1999/xlink" x="0px" y="0px" width="181px"
	 height="181px" viewBox="0 0 181 181" style="enable-background:new 0 0 181 181;" xml:space="preserve">
<style type="text/css">
	.st0{fill:none;stroke:#000000;stroke-width:2.0101;stroke-miterlimit:10;}
	.st1{stroke:#000000;stroke-width:0.6317;}
</style>
<g id="Layer_1">
</g>
<g id="_x34__x2F_8_x2F_12_Content">
	<g id="XMLID_40_">
		<rect id="XMLID_88_" x="15.2" y="38.3" class="st0" width="150.6" height="109.5"/>
		<rect id="XMLID_92_" x="15.2" y="38.3" class="st0" width="150.6" height="31.6"/>
		<line id="XMLID_94_" class="st0" x1="52" y1="31.1" x2="52" y2="44.5"/>
		<line id="XMLID_97_" class="st0" x1="128.1" y1="31.1" x2="128.1" y2="44.5"/>
		<line id="XMLID_98_" class="st0" x1="90.5" y1="31.1" x2="90.5" y2="44.5"/>
		<g id="XMLID_95_">
			<path id="XMLID_42_" class="st1" d="M85,108.3c1.1,0.2,2,0.7,2.7,1.6c0.7,0.9,1,1.9,1,3.1c0,0.8-0.2,1.6-0.5,2.3
				c-0.3,0.7-0.8,1.2-1.4,1.7c-0.6,0.5-1.3,0.8-2.2,1.1s-1.8,0.4-2.8,0.4c-1.4,0-2.6-0.2-3.6-0.6s-1.9-1.1-2.6-1.9l2-2.5
				c0.5,0.6,1,1,1.6,1.4c0.6,0.3,1.4,0.5,2.4,0.5c1.1,0,1.9-0.2,2.5-0.6c0.6-0.4,0.9-1.1,0.9-2c0-0.9-0.3-1.6-1-2.1
				c-0.7-0.5-1.6-0.7-3-0.7h-0.7v-2.6h0.8c1.1,0,1.9-0.2,2.5-0.7c0.6-0.5,0.9-1.1,0.9-1.9c0-0.7-0.2-1.3-0.7-1.6s-1.1-0.5-1.9-0.5
				c-0.8,0-1.5,0.2-2.2,0.6c-0.6,0.4-1.2,0.9-1.6,1.6L76,102c0.3-0.4,0.6-0.8,1.1-1.1c0.4-0.3,0.9-0.6,1.5-0.8
				c0.6-0.2,1.2-0.4,1.8-0.6s1.3-0.2,2-0.2c0.9,0,1.7,0.1,2.5,0.3c0.7,0.2,1.4,0.5,1.9,1c0.5,0.4,0.9,0.9,1.2,1.5s0.4,1.2,0.4,1.9
				c0,0.5-0.1,1-0.2,1.5c-0.2,0.5-0.4,0.9-0.7,1.3c-0.3,0.4-0.7,0.7-1.1,1C86,108,85.5,108.2,85,108.3z"/>
			<path id="XMLID_44_" class="st1" d="M104.8,106.7c0,1.2-0.2,2.2-0.5,3.2c-0.3,1-0.8,1.8-1.4,2.5c-0.6,0.7-1.3,1.3-2.2,1.7
				s-1.7,0.6-2.7,0.6c-1,0-1.9-0.2-2.7-0.6c-0.8-0.4-1.6-1-2.2-1.7c-0.6-0.7-1.1-1.6-1.4-2.5c-0.3-1-0.5-2.1-0.5-3.2
				s0.2-2.2,0.5-3.2s0.8-1.8,1.4-2.5c0.6-0.7,1.3-1.3,2.2-1.7c0.8-0.4,1.8-0.6,2.7-0.6c1,0,1.9,0.2,2.7,0.6s1.6,1,2.2,1.7
				c0.6,0.7,1.1,1.6,1.4,2.5C104.6,104.5,104.8,105.6,104.8,106.7z M101.2,106.7c0-0.7-0.1-1.4-0.2-1.9s-0.4-1.1-0.7-1.5
				c-0.3-0.4-0.6-0.8-1-1c-0.4-0.2-0.8-0.3-1.3-0.3c-0.5,0-0.9,0.1-1.4,0.3c-0.4,0.2-0.8,0.6-1,1c-0.3,0.4-0.5,0.9-0.7,1.5
				c-0.2,0.6-0.2,1.2-0.2,1.9c0,0.7,0.1,1.4,0.2,1.9c0.2,0.6,0.4,1.1,0.7,1.5c0.3,0.4,0.6,0.8,1,1c0.4,0.2,0.9,0.3,1.4,0.3
				c0.5,0,0.9-0.1,1.3-0.3c0.4-0.2,0.7-0.6,1-1c0.3-0.4,0.5-0.9,0.7-1.5C101.1,108.1,101.2,107.5,101.2,106.7z"/>
		</g>
	</g>
	<g id="XMLID_41_">
	</g>
	<g id="XMLID_47_">
	</g>
	<g id="XMLID_48_">
	</g>
	<g id="XMLID_49_">
	</g>
	<g id="XMLID_50_">
	</g>
	<g id="XMLID_51_">
	</g>
</g>
</svg>
