<?xml version="1.0" encoding="utf-8"?>
<!-- Generator: Adobe Illustrator 19.0.0, SVG Export Plug-In . SVG Version: 6.00 Build 0)  -->
<!DOCTYPE svg PUBLIC "-//W3C//DTD SVG 1.1//EN" "http://www.w3.org/Graphics/SVG/1.1/DTD/svg11.dtd">
<svg version="1.1" xmlns="http://www.w3.org/2000/svg" xmlns:xlink="http://www.w3.org/1999/xlink" x="0px" y="0px" width="166.5px"
	 height="166.5px" viewBox="0 0 166.5 166.5" style="enable-background:new 0 0 166.5 166.5;" xml:space="preserve">
<style type="text/css">
	.st0{fill:none;stroke:#000000;stroke-width:2.0101;stroke-miterlimit:10;}
	.st1{fill:none;}
</style>
<g id="Layer_1">
</g>
<g id="_x34__x2F_8_x2F_12_Content">
	<g id="XMLID_311_">
		<path id="XMLID_962_" class="st0" d="M146.8,124.9H19.7c-5.8,0-10.5-4.7-10.5-10.5V35.5c0-5.8,4.7-10.5,10.5-10.5h127.1
			c5.8,0,10.5,4.7,10.5,10.5v78.9C157.3,120.2,152.6,124.9,146.8,124.9z"/>
		<rect id="XMLID_963_" x="54.4" y="124.9" class="st0" width="57.7" height="16.7"/>
		<line id="XMLID_964_" class="st0" x1="36.5" y1="141.6" x2="130" y2="141.6"/>
		<line id="XMLID_966_" class="st0" x1="9.2" y1="108.2" x2="157.3" y2="108.2"/>
		<circle id="XMLID_13_" class="st0" cx="83.3" cy="116.6" r="3.6"/>
		<rect id="XMLID_79_" x="15.9" y="31.6" class="st0" width="134.5" height="71.5"/>
		<line id="XMLID_81_" class="st0" x1="24.4" y1="91.6" x2="106.9" y2="91.6"/>
		<line id="XMLID_82_" class="st0" x1="24.4" y1="85" x2="139.3" y2="85"/>
		<line id="XMLID_83_" class="st1" x1="24.4" y1="79.2" x2="139.3" y2="79.2"/>
		<rect id="XMLID_84_" x="24.4" y="41.6" class="st0" width="114.9" height="13.3"/>
	</g>
	<g id="XMLID_111_">
	</g>
	<g id="XMLID_112_">
	</g>
	<g id="XMLID_113_">
	</g>
	<g id="XMLID_114_">
	</g>
	<g id="XMLID_115_">
	</g>
	<g id="XMLID_116_">
	</g>
</g>
</svg>
