<?xml version="1.0" encoding="utf-8"?>
<!-- Generator: Adobe Illustrator 19.0.0, SVG Export Plug-In . SVG Version: 6.00 Build 0)  -->
<!DOCTYPE svg PUBLIC "-//W3C//DTD SVG 1.1//EN" "http://www.w3.org/Graphics/SVG/1.1/DTD/svg11.dtd">
<svg version="1.1" xmlns="http://www.w3.org/2000/svg" xmlns:xlink="http://www.w3.org/1999/xlink" x="0px" y="0px" width="227.5px"
	 height="227.5px" viewBox="0 0 227.5 227.5" style="enable-background:new 0 0 227.5 227.5;" xml:space="preserve">
<style type="text/css">
	.st0{fill:none;stroke:#000000;stroke-width:2.4386;stroke-linecap:round;stroke-linejoin:round;stroke-miterlimit:10;}
	.st1{fill:none;stroke:#000000;stroke-width:2.5356;stroke-linecap:round;stroke-linejoin:round;stroke-miterlimit:10;}
	.st2{fill:none;stroke:#000000;stroke-width:2.5092;stroke-linecap:round;stroke-linejoin:round;stroke-miterlimit:10;}
</style>
<g id="Layer_1">
</g>
<g id="_x34__x2F_8_x2F_12_Content">
	<g id="XMLID_55_">
		<g id="XMLID_29_">
			<circle id="XMLID_31_" class="st0" cx="46.9" cy="63" r="8.5"/>
			<path id="XMLID_46_" class="st0" d="M68,83.5c0,0.4,0,3.1,0,6.7c-2.4,0.5-4.7,1-6.9,1.6c0-3.4,0-6,0-6.6c0-3.4-2.9-3.2-2.9-0.2
				c0,0.6,0,3.4,0,7.5c-8.7,2.4-16.2,5.3-22.2,8.6c0-8.7,0-15.1,0-15.6c0.1-2.9-1.5-2.8-1.5-2.8c-0.5,0-1.6,0.2-1.7,2.9V103
				c-2.7,1.7-5.1,3.6-6.9,5.5c0-5.3,0.1-18.2,0-25.9c0-9.6,9.6-9.7,9.6-9.7s13.7,0,23,0S68,82.3,68,83.5z"/>
		</g>
		<g id="XMLID_26_">
			<circle id="XMLID_28_" class="st0" cx="112.9" cy="51.1" r="8.5"/>
			<path id="XMLID_37_" class="st0" d="M134.1,71.5c0,0.7,0,8.1,0,15c-2.3-0.2-4.6-0.3-6.9-0.5c0-6,0-12,0-12.9
				c0-3.4-2.9-3.2-2.9-0.2c0,0.8,0,5.9,0,12.9c-3.4-0.1-6.9-0.2-10.4-0.2c-4,0-7.9,0.1-11.8,0.3c0-7.1,0-12,0-12.5
				c0.1-2.9-1.5-2.8-1.5-2.8c-0.5,0-1.6,0.2-1.7,2.9v12.5c-2.3,0.1-4.6,0.3-6.9,0.5c0-5.4,0-11.6,0-16.1c0-9.6,9.6-9.7,9.6-9.7
				s13.6,0,23,0C133.9,61,134.1,70.3,134.1,71.5z"/>
		</g>
		<g id="XMLID_10_">
			<circle id="XMLID_25_" class="st0" cx="179.2" cy="63" r="8.5"/>
			<path id="XMLID_42_" class="st0" d="M200.4,83.5c0,1,0,16.8,0,23.8c-1.9-1.8-4.2-3.5-6.9-5.1c0-7,0-16,0-17.1
				c0-3.4-2.9-3.2-2.9-0.2c0,0.9,0,7.2-0.1,15.6c-6-3.2-13.6-6-22.2-8.3c0-3.9,0-6.4,0-6.7c0.1-2.9-1.5-2.8-1.5-2.8
				c-0.5,0-1.6,0.2-1.7,2.9v5.8c-2.2-0.5-4.5-1.1-6.9-1.5c0-2.7,0-5.2,0-7.3c0-9.6,9.6-9.7,9.6-9.7s13.7,0,23,0
				C200.3,72.9,200.4,82.3,200.4,83.5z"/>
		</g>
		<path id="XMLID_35_" class="st0" d="M207.1,121.6v34.3c0,0-14.3,0-25.1,13.4c-10.4-4.1-23.2-1.5-34.9,7.6
			c-6.1-3.6-11.7-2.5-20.9,4.6c-7.6-8.6-50.4-7.6-59.5-4.6c-3.6-5.1-23.1-9.7-33.1-6.1c-2.5-9.7-13.2-12.5-13.2-12.5s0-18.5,0-36.8
			h0.1c0.7,6.4,6.3,12.4,15.5,17.5c2.9,1.6,6.1,3.1,9.6,4.5c0.9,0.4,1.8,0.7,2.8,1c3,1.1,6.3,2.1,9.7,3.1
			c15.5,4.2,34.8,6.8,55.7,6.8c20.4,0,39.2-2.4,54.6-6.5c3.4-0.9,6.6-1.9,9.7-3c0.9-0.3,1.9-0.7,2.8-1c3.5-1.3,6.8-2.8,9.7-4.3
			C200.2,134.5,206.2,128.3,207.1,121.6L207.1,121.6z"/>
		<path id="XMLID_32_" class="st0" d="M207.1,120.1c0,0.5,0,1-0.1,1.5c-0.8,6.7-6.8,12.9-16.5,18.1c-2.9,1.5-6.1,3-9.7,4.3
			c-0.9,0.3-1.8,0.7-2.8,1c-3,1.1-6.3,2-9.7,3c-15.4,4.1-34.2,6.5-54.6,6.5c-20.9,0-40.2-2.5-55.7-6.8c-3.4-0.9-6.6-2-9.7-3.1
			c-1-0.3-1.9-0.7-2.8-1c-3.5-1.4-6.8-2.9-9.6-4.5c-9.1-5-14.7-11-15.5-17.5c-0.1-0.5-0.1-1-0.1-1.5c0-4.1,1.9-8,5.5-11.6
			c1.9-1.9,4.2-3.8,6.9-5.5c1-0.6,2-1.3,3.1-1.9c6-3.3,13.5-6.2,22.2-8.6c1-0.3,2-0.5,2.9-0.8c2.2-0.6,4.5-1.1,6.9-1.6
			c7.4-1.5,15.4-2.7,23.9-3.5c2.3-0.2,4.6-0.4,6.9-0.5c1-0.1,2.1-0.1,3.1-0.2c3.9-0.2,7.8-0.3,11.8-0.3c3.5,0,7,0.1,10.4,0.2
			c1,0,2,0.1,2.9,0.1c2.3,0.1,4.6,0.3,6.9,0.5c8.6,0.7,16.7,1.8,24.2,3.3c2.4,0.5,4.7,1,6.9,1.5c1.1,0.3,2.1,0.5,3.1,0.8
			c8.6,2.3,16.1,5.1,22.2,8.3c1,0.5,2,1.1,2.9,1.6c2.7,1.6,5,3.3,6.9,5.1C204.7,111.2,207.1,115.6,207.1,120.1z"/>
		<line id="XMLID_7_" class="st1" x1="33.6" y1="170.9" x2="33.6" y2="137.7"/>
		<line id="XMLID_6_" class="st0" x1="126.2" y1="181.5" x2="126.2" y2="163.3"/>
		<line id="XMLID_5_" class="st0" x1="182" y1="145" x2="182" y2="163.3"/>
		<line id="XMLID_4_" class="st2" x1="147" y1="177" x2="147" y2="152.3"/>
	</g>
	<g id="XMLID_56_">
	</g>
	<g id="XMLID_57_">
	</g>
	<g id="XMLID_58_">
	</g>
	<g id="XMLID_59_">
	</g>
	<g id="XMLID_60_">
	</g>
	<g id="XMLID_61_">
	</g>
</g>
</svg>
