<?xml version="1.0" encoding="utf-8"?>
<!-- Generator: Adobe Illustrator 19.0.0, SVG Export Plug-In . SVG Version: 6.00 Build 0)  -->
<!DOCTYPE svg PUBLIC "-//W3C//DTD SVG 1.1//EN" "http://www.w3.org/Graphics/SVG/1.1/DTD/svg11.dtd">
<svg version="1.1" id="Layer_1" xmlns="http://www.w3.org/2000/svg" xmlns:xlink="http://www.w3.org/1999/xlink" x="0px" y="0px"
	 width="446.6px" height="135.4px" viewBox="0 0 446.6 135.4" style="enable-background:new 0 0 446.6 135.4;" xml:space="preserve"
	>
<g id="XMLID_1_">
	<path id="XMLID_55_" d="M21.8,62.8c0-5.4,0.8-10.3,2.4-14.7c1.6-4.4,3.9-8.2,6.8-11.5c6.1-6.7,13.8-10,23.3-10
		c4.7,0,9.1,0.9,13.1,2.7c4,1.8,7.4,4.3,10.3,7.5c6.1,6.7,9.1,15.4,9.1,26c0,10.6-3,19.3-9.1,26c-2.9,3.2-6.3,5.7-10.3,7.5
		c-4,1.8-8.4,2.7-13.1,2.7c-9.5,0-17.3-3.4-23.4-10.1C24.8,82.1,21.8,73.4,21.8,62.8z M76.1,69.4V56.1c0-8.3-2-15-6.1-20.1
		c-4-5-9.3-7.5-15.7-7.5c-6.4,0-11.7,2.5-15.7,7.5c-4.1,5.1-6.1,11.8-6.1,20.1v13.3c0,8.5,2,15.3,6.1,20.3c4,4.9,9.3,7.3,15.7,7.3
		c6.4,0,11.7-2.4,15.7-7.3C74,84.7,76.1,77.9,76.1,69.4z"/>
	<path id="XMLID_58_" d="M121,97.3v-1.7l5.2-0.9V64.3c0-6.3-2.5-9.4-7.4-9.4c-2.6,0-5.2,1-7.6,2.9c-2.4,1.9-4.6,4.3-6.5,7.1v29.7
		l5.2,0.9v1.7H89.9v-1.7l6-0.9V55.2l-6-0.9v-1.7h14.7v9.3c4.7-6.7,10.3-10.1,16.8-10.1c4.1,0,7.4,1,9.8,3.1c2.4,2.1,3.6,5.1,3.6,9.2
		v30.5l6,0.9v1.7H121z"/>
	<path id="XMLID_60_" d="M164.1,96.2c2.1,0,4-0.3,5.8-0.9c1.8-0.6,3.4-1.5,4.9-2.5c3-2.2,4.9-5.1,5.6-8.6h2
		c-0.8,4.3-2.8,7.7-6.1,10.2c-3.3,2.5-7.3,3.7-12,3.7c-6.5,0-11.9-2.1-16.3-6.4c-4.3-4.3-6.5-9.9-6.5-16.8c0-6.8,2.2-12.4,6.5-16.7
		c4.1-4.3,9.4-6.4,15.8-6.4c5.6,0,10.1,1.8,13.5,5.3c3.5,3.6,5.3,8.2,5.4,13.6h-31.7v8.5c0,5.1,1.1,9.2,3.4,12.2
		C156.7,94.6,160,96.2,164.1,96.2z M163.6,53.7c-3.9,0-6.8,1.4-9,4.1c-2.1,2.7-3.3,6.3-3.6,10.8h22.2
		C173.2,58.7,170,53.7,163.6,53.7z"/>
	<path id="XMLID_63_" d="M218.9,46.7h3.3v18.1h18.2v3.3h-18.2v18.2h-3.3V68.1h-18.1v-3.3h18.1V46.7z"/>
	<path id="XMLID_65_" d="M256.1,62.8c0-5.4,0.8-10.3,2.4-14.7c1.6-4.4,3.9-8.2,6.8-11.5c6.1-6.7,13.8-10,23.3-10
		c4.7,0,9.1,0.9,13.1,2.7c4,1.8,7.4,4.3,10.3,7.5c6.1,6.7,9.1,15.4,9.1,26c0,10.6-3,19.3-9,26c-2.9,3.2-6.3,5.7-10.3,7.5
		c-4,1.8-8.4,2.7-13.1,2.7c-9.5,0-17.3-3.4-23.4-10.1C259.1,82.1,256.1,73.4,256.1,62.8z M310.4,69.4V56.1c0-8.3-2-15-6.1-20.1
		c-4-5-9.3-7.5-15.7-7.5c-6.4,0-11.7,2.5-15.7,7.5c-4.1,5.1-6.1,11.8-6.1,20.1v13.3c0,8.5,2,15.3,6.1,20.3c4,4.9,9.3,7.3,15.7,7.3
		c6.4,0,11.7-2.4,15.7-7.3C308.4,84.7,310.4,77.9,310.4,69.4z"/>
	<path id="XMLID_68_" d="M355.3,97.3v-1.7l5.2-0.9V64.3c0-6.3-2.5-9.4-7.4-9.4c-2.6,0-5.2,1-7.6,2.9c-2.4,1.9-4.6,4.3-6.5,7.1v29.7
		l5.2,0.9v1.7h-19.8v-1.7l6-0.9V55.2l-6-0.9v-1.7h14.7v9.3c4.7-6.7,10.3-10.1,16.8-10.1c4.1,0,7.4,1,9.8,3.1
		c2.4,2.1,3.6,5.1,3.6,9.2v30.5l6,0.9v1.7H355.3z"/>
	<path id="XMLID_70_" d="M398.4,96.2c2.1,0,4-0.3,5.8-0.9c1.8-0.6,3.4-1.5,4.9-2.5c3-2.2,4.9-5.1,5.6-8.6h2
		c-0.8,4.3-2.8,7.7-6.1,10.2c-3.3,2.5-7.3,3.7-12,3.7c-6.5,0-11.9-2.1-16.3-6.4c-4.3-4.3-6.5-9.9-6.5-16.8c0-6.8,2.2-12.4,6.5-16.7
		c4.1-4.3,9.4-6.4,15.8-6.4c5.6,0,10.1,1.8,13.5,5.3c3.5,3.6,5.3,8.2,5.4,13.6h-31.7v8.5c0,5.1,1.1,9.2,3.4,12.2
		C391.1,94.6,394.3,96.2,398.4,96.2z M398,53.7c-3.8,0-6.8,1.4-9,4.1c-2.1,2.7-3.3,6.3-3.6,10.8h22.2
		C407.5,58.7,404.3,53.7,398,53.7z"/>
</g>
<g id="XMLID_54_">
</g>
<g id="XMLID_73_">
</g>
<g id="XMLID_74_">
</g>
<g id="XMLID_75_">
</g>
<g id="XMLID_76_">
</g>
<g id="XMLID_77_">
</g>
</svg>
