<?xml version="1.0" encoding="utf-8"?>
<!-- Generator: Adobe Illustrator 19.0.0, SVG Export Plug-In . SVG Version: 6.00 Build 0)  -->
<!DOCTYPE svg PUBLIC "-//W3C//DTD SVG 1.1//EN" "http://www.w3.org/Graphics/SVG/1.1/DTD/svg11.dtd">
<svg version="1.1" id="Layer_1" xmlns="http://www.w3.org/2000/svg" xmlns:xlink="http://www.w3.org/1999/xlink" x="0px" y="0px"
	 width="631.3px" height="144px" viewBox="0 0 631.3 144" style="enable-background:new 0 0 631.3 144;" xml:space="preserve">
<style type="text/css">
	.st0{fill:#FFFFFF;}
	.st1{fill:none;stroke:#FFFFFF;stroke-width:5.9049;stroke-miterlimit:10;}
</style>
<g id="XMLID_2_">
	<g id="XMLID_26_">
		<path id="XMLID_27_" class="st0" d="M84.2,103.4V58.8h-5.8v-5.7h12.1v50.3H84.2z"/>
	</g>
	<g id="XMLID_19_">
		<path id="XMLID_24_" class="st0" d="M140.5,103.4V58.8h-5.8v-5.7h12.1v50.3H140.5z"/>
	</g>
	<polygon id="XMLID_18_" class="st0" points="134.7,74.9 118.5,74.9 118.5,58.9 112.2,58.9 112.2,63.3 112.2,69.7 112.2,74.9 
		96,74.9 96,81.2 100.4,81.2 106.8,81.2 112.2,81.2 112.2,97.5 118.5,97.5 118.5,81.2 134.7,81.2 	"/>
	<g id="XMLID_11_">
		<path id="XMLID_13_" class="st0" d="M137.7,32.2c0.5,0.1,1,0.2,1.5,0.3c1.9,0.4,3.7,1,5.1,2.4c1.5,1.5,2.1,3.3,2,5.3
			c0,1.3-0.3,2.5-1,3.6c-0.9,1.4-2.2,2.4-3.8,3c-1.7,0.7-3.5,0.9-5.3,0.9c-6.7,0-13.3,0-20,0c-7.2,0-14.5,0-21.7,0
			c-1.9,0-3.8-0.2-5.6-0.9c-2.4-1-4.1-2.6-4.5-5.2c-0.6-3.5,0.6-6.5,4-8.2c1.2-0.6,2.5-0.9,3.9-1.1c1.4-0.2,3.3-0.1,4.2,0
			c1.7,0.2,3.4,0.5,5.1,1.1c2.8,1,5.3,2.4,7.5,4.4c0.3,0.3,0.6,0.5,0.9,0.8c3.5-1.9,7-1.8,10.4,0.1c0.1-0.1,0.2-0.1,0.3-0.2
			c1.6-1.5,3.4-2.8,5.4-3.8c1.8-0.9,3.7-1.6,5.6-2c1-0.2,1.9-0.3,2.9-0.5C135.7,32.1,136.7,32.1,137.7,32.2z M123.8,42.6
			c0.1,0,1,0,1.3,0c3.5,0,6.9,0,10.4,0c1,0,2-0.1,3-0.2c0.6-0.1,1.2-0.3,1.7-0.6c0.8-0.4,1.2-1,1.1-1.9c0-0.9-0.5-1.5-1.3-1.8
			c-0.7-0.3-1.4-0.5-2.2-0.6c-2.2-0.3-4.4,0-6.5,0.6c-1.8,0.5-3.4,1.4-4.9,2.4C125.6,41,124.5,42,123.8,42.6z M107.1,42.6
			c-0.2-0.2-1.2-0.8-1.4-1c-2-1.7-4.3-3-6.8-3.6c-2.1-0.6-4.2-0.7-6.3-0.4c-0.6,0.1-1.3,0.3-1.9,0.6c-1.3,0.6-1.6,2.1-0.8,3.2
			c0.4,0.5,1.1,0.9,1.8,1c1.2,0.2,2.4,0.3,3.6,0.3c3.4,0,6.8,0,10.1,0C105.5,42.6,107.1,42.6,107.1,42.6z"/>
	</g>
	<circle id="XMLID_10_" class="st1" cx="115.4" cy="72" r="58.2"/>
	<g id="XMLID_1_">
		<path id="XMLID_30_" class="st0" d="M196.1,89.6c-3.6-3.7-5.4-8.5-5.4-14.5c0-6,1.9-10.9,5.6-14.6s8.4-5.6,14-5.6s10.3,1.9,14,5.6
			S230,69,230,75s-1.9,10.8-5.8,14.5c-3.9,3.7-8.7,5.6-14.3,5.6S199.7,93.2,196.1,89.6z M209.9,89.8c3.6,0,6.8-1.3,9.5-3.9
			c2.7-2.6,4-6.2,4-10.9c0-4.6-1.3-8.2-3.8-10.8c-2.5-2.6-5.7-3.9-9.3-3.9c-3.7,0-6.7,1.3-9.2,3.9c-2.5,2.6-3.7,6.2-3.7,10.9
			c0,4.7,1.2,8.3,3.5,10.9C203.3,88.5,206.3,89.8,209.9,89.8z"/>
		<path id="XMLID_34_" class="st0" d="M238.9,55.6v6.3c2.6-4.6,6.9-6.9,12.7-6.9c4.3,0,7.9,1.4,10.8,4.3c2.9,2.9,4.3,6.9,4.3,12.2
			v23h-6.4v-22c0-3.9-0.9-6.9-2.8-8.9c-1.9-2-4.5-3-7.8-3s-6,1-7.9,3c-1.9,2-2.9,5-2.9,8.9v22h-6.4V55.6H238.9z"/>
		<path id="XMLID_36_" class="st0" d="M287.6,95.1c-5.6,0-10.1-1.8-13.6-5.5c-3.5-3.7-5.2-8.5-5.2-14.6s1.8-10.9,5.3-14.6
			c3.5-3.7,8.1-5.5,13.8-5.5c5.6,0,10.2,1.7,13.6,5.2c3.4,3.5,5.1,7.9,5.1,13.3c0,1.4-0.1,2.6-0.3,3.8h-31c0.2,3.9,1.4,6.9,3.7,9.2
			c2.2,2.2,5.1,3.4,8.6,3.4c2.6,0,4.9-0.6,6.7-1.8c1.8-1.2,3.2-2.7,4-4.7h6.9c-1.2,3.4-3.3,6.2-6.3,8.4
			C295.9,94,292.1,95.1,287.6,95.1z M296.3,63.6c-2.3-2.2-5.2-3.4-8.6-3.4c-3.4,0-6.3,1.1-8.5,3.3c-2.3,2.2-3.5,5.2-3.8,9h24.4
			C299.8,68.8,298.6,65.8,296.3,63.6z"/>
		<path id="XMLID_39_" class="st0" d="M345.3,54.9c5.3,0,9.8,1.8,13.3,5.5c3.5,3.7,5.3,8.5,5.3,14.4c0,5.9-1.8,10.8-5.3,14.6
			s-8,5.7-13.2,5.7c-3.3,0-6.2-0.8-8.7-2.4s-4.4-3.7-5.7-6.2v26.4h-6.4V55.6h6.4v7.8c1.3-2.5,3.2-4.5,5.7-6.1
			C339.1,55.7,342,54.9,345.3,54.9z M344.1,89.6c3.6,0,6.7-1.4,9.3-4.1c2.6-2.7,3.9-6.3,3.9-10.7c0-4.4-1.3-7.9-3.9-10.5
			c-2.6-2.6-5.7-3.8-9.3-3.8c-3.6,0-6.7,1.3-9.3,4c-2.6,2.6-3.9,6.2-3.9,10.5c0,4.4,1.3,7.9,3.9,10.6S340.4,89.6,344.1,89.6z"/>
		<path id="XMLID_42_" class="st0" d="M366.3,94.5V42h6.4v52.4H366.3z"/>
		<path id="XMLID_44_" class="st0" d="M403.7,55.6h6.4v38.9h-6.4v-6.2c-2.6,4.6-6.8,6.9-12.7,6.9c-4.3,0-7.9-1.4-10.8-4.3
			c-2.9-2.9-4.3-6.9-4.3-12.2V55.6h6.4v22c0,3.9,1,6.8,2.9,8.9c1.9,2.1,4.5,3.1,7.8,3.1c3.3,0,5.9-1,7.8-3.1c1.9-2.1,2.9-5,2.9-8.9
			V55.6z"/>
		<path id="XMLID_46_" class="st0" d="M412.3,66.5c0-3.3,1.4-6,4.1-8.3c2.7-2.2,6.2-3.4,10.6-3.4c4.3,0,7.7,1.1,10.2,3.3
			c2.5,2.2,3.8,5.2,4,9h-6.7c-0.1-2.2-0.8-3.9-2.2-5.2c-1.4-1.3-3.3-2-5.7-2c-2.4,0-4.3,0.6-5.7,1.7c-1.4,1.2-2.1,2.6-2.1,4.5
			c0,1.8,0.8,3.2,2.4,4.2s3.5,1.7,5.7,2.2c2.2,0.4,4.5,1,6.7,1.6c2.2,0.6,4.2,1.7,5.7,3.3s2.4,3.9,2.4,6.9c0,3-1.4,5.5-4.1,7.6
			c-2.7,2.1-6.2,3.1-10.6,3.1c-4.3,0-7.8-1.1-10.4-3.3c-2.6-2.2-4.1-5.2-4.3-9h6.7c0.1,2.2,0.9,3.9,2.3,5.2c1.4,1.3,3.4,1.9,6,1.9
			c2.5,0,4.5-0.5,6-1.6c1.4-1.1,2.2-2.5,2.2-4.1c0-1.7-0.6-3-1.7-4c-1.1-1-2.6-1.7-4.3-2.1c-1.7-0.4-3.6-0.8-5.6-1.3
			c-2-0.5-3.9-1.1-5.6-1.7s-3.1-1.6-4.2-3.1C412.8,70.6,412.3,68.8,412.3,66.5z"/>
		<path id="XMLID_48_" class="st0" d="M463.7,89.6c-3.6-3.7-5.4-8.5-5.4-14.5c0-6,1.9-10.9,5.6-14.6s8.4-5.6,14-5.6
			c5.6,0,10.3,1.9,14,5.6s5.6,8.5,5.6,14.5s-1.9,10.8-5.8,14.5s-8.7,5.6-14.3,5.6C471.8,95.1,467.2,93.2,463.7,89.6z M477.5,89.8
			c3.6,0,6.8-1.3,9.5-3.9c2.7-2.6,4-6.2,4-10.9c0-4.6-1.3-8.2-3.8-10.8c-2.5-2.6-5.7-3.9-9.3-3.9c-3.7,0-6.7,1.3-9.2,3.9
			c-2.5,2.6-3.7,6.2-3.7,10.9c0,4.7,1.2,8.3,3.5,10.9C470.8,88.5,473.8,89.8,477.5,89.8z"/>
		<path id="XMLID_51_" class="st0" d="M506.4,55.6v6.3c2.6-4.6,6.9-6.9,12.7-6.9c4.3,0,7.9,1.4,10.8,4.3c2.9,2.9,4.3,6.9,4.3,12.2
			v23h-6.4v-22c0-3.9-0.9-6.9-2.8-8.9c-1.9-2-4.5-3-7.8-3c-3.3,0-6,1-7.9,3c-1.9,2-2.9,5-2.9,8.9v22H500V55.6H506.4z"/>
		<path id="XMLID_53_" class="st0" d="M555.1,95.1c-5.6,0-10.1-1.8-13.6-5.5c-3.5-3.7-5.2-8.5-5.2-14.6s1.8-10.9,5.3-14.6
			c3.5-3.7,8.1-5.5,13.8-5.5c5.6,0,10.2,1.7,13.6,5.2c3.4,3.5,5.1,7.9,5.1,13.3c0,1.4-0.1,2.6-0.3,3.8h-31c0.2,3.9,1.4,6.9,3.7,9.2
			c2.2,2.2,5.1,3.4,8.6,3.4c2.6,0,4.9-0.6,6.7-1.8c1.8-1.2,3.2-2.7,4-4.7h6.9c-1.2,3.4-3.3,6.2-6.3,8.4
			C563.4,94,559.6,95.1,555.1,95.1z M563.8,63.6c-2.3-2.2-5.2-3.4-8.6-3.4c-3.4,0-6.3,1.1-8.5,3.3c-2.3,2.2-3.5,5.2-3.8,9h24.4
			C567.3,68.8,566.1,65.8,563.8,63.6z"/>
	</g>
</g>
<g id="XMLID_93_">
</g>
<g id="XMLID_94_">
</g>
<g id="XMLID_95_">
</g>
<g id="XMLID_96_">
</g>
<g id="XMLID_97_">
</g>
<g id="XMLID_98_">
</g>
</svg>
